<svg xmlns="http://www.w3.org/2000/svg" xmlns:xlink="http://www.w3.org/1999/xlink" xmlns:inkscape="http://www.inkscape.org/namespaces/inkscape" version="1.1" width="175.748" height="187.9999" viewBox="0 0 175.748 187.9999">
<g inkscape:groupmode="layer" inkscape:label="Layer 1">
<path transform="matrix(1,0,0,-1,0,187.9999)" d="M41.9159 97.7661 15.7368 81.0371 15.4882 80.623 14.9434 80.2746 14.4482 79.4472 13.5896 78.3862 12.9634 76.9615 12.388 75.0572 11.7468 72.8555 .7815 16.6867 .5352 16.2731 .2058 14.7841 .1108 12.9311 .3115 11.0117 1.2413 9.5567 2.9639 8.8654 6.0917 9.5825 10.6866 12.0076 87.4083 61.0336 72.7413 73.1687 21.1079 40.1743 24.0194 76.0884 40.5632 86.6605Z" fill="#bfc1c8" fill-rule="evenodd"/>
<path transform="matrix(1,0,0,-1,0,187.9999)" d="M59.3291 112.9901 40.9669 101.2564 35.1967 63.0048 35.1298 62.706 34.7525 61.6949 34.4894 60.5035 34.8908 59.4788 35.6508 58.6857 37.8692 58.8231 41.1262 60.1367 45.7877 62.8577 69.605 78.0769 68.2044 92.2893 50.2053 80.7877 51.2359 96.8077 63.9618 104.94Z" fill="#a1daf8" fill-rule="evenodd"/>
<path transform="matrix(1,0,0,-1,0,187.9999)" d="M66.3384 93.7939 52.7956 114.9877 52.4163 115.2145 51.7754 116.2168 51.0293 117.3838 50.51 118.9329 50.7651 120.7409 52.022 123.1892 54.4317 125.6695 58.6032 128.3352 138.3738 179.3095 138.5399 179.4152 139.2653 180.1134 140.5397 180.6934 141.925 181.1069 143.5161 181.1846 145.4306 180.7628 147.4387 179.4614 149.2654 177.3386 166.3277 150.6373 166.434 150.4706 166.5275 149.5888 166.8917 148.6485 167.201 147.4347 167.5528 145.7802 167.7362 144.0176 167.4828 142.2105 167.1202 140.567 166.591 138.8205 165.2465 137.2555 163.6809 136.0205 161.5714 134.9067 158.8107 134.0824 155.181 133.8795 151.0639 134.0674 145.9749 135.0473 107.8481 142.8812 128.0203 155.7706 150.8355 150.6081 141.8777 164.6257 83.1365 127.0896 82.9684 126.9822 82.3632 126.83 81.6344 126.1298 80.9654 125.7021 80.1774 124.7295 79.9407 123.637 79.8627 122.6477 80.5504 121.2075 87.2688 110.694 74.2929 104.5174Z" fill="#bfc1c8" fill-rule="evenodd"/>
<path transform="matrix(1,0,0,-1,0,187.9999)" d="M110.4763 62.2015 112.9031 64.0097 115.217 66.0019 117.2299 68.0559 118.8315 70.3596 120.3171 72.8444 121.6862 75.5116 122.7563 78.243 123.3462 80.9257 123.8207 83.7887 123.9953 86.7175 123.9928 89.5326 123.6898 92.41 123.0851 95.3541 122.1236 98.0685 121.0422 100.9596 119.4148 103.5057 117.6724 106.2323 115.6178 108.2497 113.559 110.2609 111.1425 112.0456 108.6576 113.5312 106.1048 114.7156 103.373 115.7879 100.5763 116.5595 97.8942 117.1505 94.966 117.3271 91.9695 117.2058 89.0909 116.9011 86.3271 116.4161 83.6172 115.4531 80.8387 114.1883 78.1784 112.7452 75.7485 110.9361 73.4352 108.9468 71.42 106.8902 69.6385 104.4706 68.1528 101.9866 66.786 99.3195 65.7139 96.5869 65.124 93.9053 64.6486 91.0426 64.4734 88.1127 64.478 85.3002 64.7813 82.4207 65.3822 79.4755 66.3463 76.7648 67.4946 74.1685 69.0557 71.3256 70.8642 68.8955 72.8527 66.5838 74.9081 64.5684 77.3286 62.7851 79.8137 61.3015 82.3643 60.1149 85.0961 59.044 87.8941 58.2715 90.5763 57.6797 93.5062 57.5042 96.4998 57.6249 99.3793 57.9294 102.3225 58.5303 105.0347 59.4958 107.8132 60.7575Z" fill="#1a1a18" fill-rule="evenodd"/>
<path transform="matrix(1,0,0,-1,0,187.9999)" d="M107.7367 66.0855 109.8023 67.6621 111.6862 69.1211 113.5176 71.0609 114.7592 73.133 116.2899 75.1365 117.2299 77.2719 118.0519 79.592 118.758 82.0911 119.2876 84.4784 119.3321 86.8099 119.2598 89.3239 118.8896 91.9032 118.4562 94.1882 117.6063 96.7167 116.6939 98.9512 115.4803 101.247 113.906 103.3143 112.1465 105.2612 110.2085 107.096 108.3175 108.4482 106.1314 109.8692 103.9966 110.8086 101.8616 111.7488 99.3574 112.4521 96.9086 112.6794 94.4589 112.9071 92.1249 112.9527 89.5479 112.5873 87.262 112.1485 84.8489 111.119 82.6166 110.2059 80.3194 108.991 78.2527 107.4172 76.3044 105.6589 74.5367 104.017 73.0001 102.0132 71.7636 99.9417 70.6431 97.689 69.8213 95.3705 68.9964 93.0509 68.7708 90.6035 68.5437 88.1538 68.4969 85.8206 68.8669 83.2385 69.3017 80.9563 70.1501 78.4253 71.1797 76.0124 72.5743 73.8298 73.9681 71.6491 75.6099 69.8808 77.55 68.0488 79.439 66.6935 81.6253 65.2751 83.8794 64.1551 86.1968 63.3328 88.3973 62.6902 90.9649 62.2828 93.4143 62.0538 95.9284 62.1255 98.212 62.5589 100.7923 62.9289 103.1409 63.661 105.4383 64.8737Z" fill="#bfc1c8" fill-rule="evenodd"/>
<path transform="matrix(1,0,0,-1,0,187.9999)" d="M89.9425 68.2866 89.6825 67.0946 88.5396 66.8778 87.0007 67.6843 85.11 69.0384 82.9905 70.7553 80.8166 72.9522 79.2408 75.0186 77.7815 76.9017 75.9376 80.587 74.8718 84.2604 74.5835 87.9177 75.1397 91.8553 76.2242 95.3663 78.2042 98.6791 80.7131 101.5639 83.7547 104.0185 87.2589 105.7465 90.9303 106.8114 94.5853 107.0991 98.4095 106.7247 101.8542 105.3437 105.2348 103.663 108.1179 101.1506 110.6912 97.9313 112.1321 95.2662 113.099 92.5549 113.5831 89.7934 113.5879 86.9808 113.472 87.1622 112.6964 87.179 111.5028 87.4383 110.0149 87.7686 108.1576 87.863 106.3035 87.9593 104.0879 87.8224 101.9874 87.5032 99.6389 86.7719 97.5237 85.6757 95.3413 84.2814 93.6255 82.1605 92.2045 79.9736 91.004 76.6463 90.1511 72.7722Z" fill="#585e5f" fill-rule="evenodd"/>
<path transform="matrix(1,0,0,-1,0,187.9999)" d="M106.2298 89.7007 106.0773 89.8744 105.4267 89.9101 104.2841 89.8089 103.1369 89.7075 101.5163 89.7987 99.8776 89.5615 97.9135 89.3429 96.1036 88.9492 94.1224 88.4024 92.1246 87.5234 90.2772 86.4694 88.4305 85.4201 86.8884 84.0183 85.6565 82.2691 84.4217 80.5212 83.8003 78.0769 83.7816 77.7475 83.4205 77.1063 83.0424 76.1366 82.7989 74.662 82.6903 72.6837 82.3921 70.2224 82.383 67.0813 82.3558 63.6131 82.6617 63.2653 82.9318 62.2579 83.3179 60.4168 83.3627 58.2642 82.893 55.6481 81.9116 52.5609 80.0901 49.0286 77.1282 45.3951 76.7843 45.0828 76.3889 43.7845 75.4781 42.0174 74.6861 39.4174 74.0449 36.6432 73.8822 33.677 74.1974 30.5184 75.3321 27.4802 75.6193 26.8007 76.5009 25.0991 77.4816 22.2321 78.6022 18.8606 79.1838 14.6965 79.446 10.5489 78.7751 7.3276H82.9641 175.3812V106.2788L173.3409 106.5594 171.0893 107.0155 168.5123 107.4937 165.7692 107.8129 162.506 107.6706 159.5707 107.5034 156.2922 107.0263 152.8231 106.0676 149.3357 104.7764 145.9877 102.9844 142.4469 100.7028 139.0425 97.9234 138.8696 97.7666 138.3559 97.2992 137.5019 96.5228 135.9972 95.7815 134.6465 94.866 132.7816 93.4832 130.932 92.4296 128.7621 91.3963 126.1151 90.5564 123.6175 89.538 120.82 88.8724 118.1889 88.3602 115.2544 88.198 112.1641 88.206 109.2654 88.7017Z" fill="#0087cd" fill-rule="evenodd"/>
<path transform="matrix(1,0,0,-1,0,187.9999)" d="M101.2153 83.0546 100.5474 83.0945 99.0244 83.0086 97.1524 82.607 95.0845 81.7157 93.1737 80.6431 91.7399 79.0427 91.254 76.3775 91.7371 72.9856 92.0546 72.631 92.8457 71.7463 94.0935 69.9953 94.7931 67.4323 95.1381 64.554 94.7718 61.0418 93.0294 56.9333 89.5723 52.2473 89.1989 51.5951 88.2765 50.1338 87.1203 47.5053 86.2625 44.1893 85.7228 40.5179 86.1494 36.121 88.0773 31.4685 91.5052 26.5686 91.9786 26.0393 93.3693 23.773 95.0536 20.8179 96.8769 17.3554 98.1539 13.0779 98.4047 8.5201 97.9092 6.8153H99.3538 118.4117L119.3482 10.0446 119.3151 15.4287 118.0108 22.2293 114.0803 30.1898 107.028 39.4982 106.5543 40.0277 105.1486 41.9584 103.462 44.9127 101.8151 48.5371 101.2082 52.778 101.6478 57.6303 103.6057 62.5669 108.0884 67.5317 108.4042 67.1783 109.0188 66.1351 110.2657 64.3836 111.653 62.1198 113.1826 59.3413 114.3558 56.2484 115.5314 53.1541 116.172 49.5865 116.1153 48.579 116.6349 45.86 117.2611 41.953 119.0285 37.4822 121.6273 32.7971 125.6054 28.7045 130.8234 25.7213 137.6317 24.1656 138.4608 23.9502 140.9295 22.9728 144.3685 21.2664 148.4382 18.8507 151.8009 15.806 154.4173 11.4542 155.3803 6.8153H175.6375V25.7941L173.9237 26.348 169.9517 27.5777 166.0221 29.4775 162.305 32.2092 159.3113 35.9096 157.4062 40.894 157.2843 41.7416 156.0745 44.1641 154.2487 47.63 151.7712 51.4701 148.2866 55.3669 143.7616 58.6449 138.3483 61.1376 131.8351 62.0059 131.3226 61.8633 130.1389 61.7627 128.1285 61.8687 125.2848 62.1998 122.3045 63.0383 118.8672 64.7402 115.467 67.1193 111.7899 70.5243 112.4396 70.1498 114.2558 69.5438 117.2375 68.7036 120.7508 68.341 124.774 68.1199 128.677 68.7376 132.7969 70.1915 136.3187 73.0247 136.6733 73.3416 137.3808 73.9746 138.4231 74.5858 140.1384 75.1618 142.5084 75.3712 145.6639 74.6895 149.4403 72.9629 154.0026 70.3559 154.4596 69.4865 156.2006 67.5394 158.7529 65.0443 162.3104 62.4909 166.2429 60.588 170.9172 59.9907 175.6375 60.8576V90.5207L174.0183 91.4406 171.8867 92.4066 169.3967 93.0484 166.5757 93.7083 164.0738 94.0167 161.0317 93.8475 158.1364 93.1734 154.8831 92.175 151.7717 90.665 148.4419 88.3284 148.2661 88.1711 147.7338 87.6954 147.0078 86.7249 145.7683 85.6165 144.356 84.3534 142.6008 83.1047 140.6716 81.6956 138.5677 80.1295 136.3215 79.0773 134.0546 77.6934 131.4757 76.659 128.9137 75.9577 126.3699 75.5966 123.8431 75.5677 121.3364 75.8758 118.8703 76.8566 118.3771 77.0545 117.072 77.7971 115.4509 78.8973 113.1568 80.0334 110.3734 81.3668 107.3917 82.207 104.2328 82.8862Z" fill="#a1daf8" fill-rule="evenodd"/>
</g>
</svg>
